<svg id="Filtrar" xmlns="http://www.w3.org/2000/svg" width="18.142" height="12.664" viewBox="0 0 18.142 12.664">
  <path id="Trazado_21" data-name="Trazado 21" d="M.355,11.618a1.367,1.367,0,0,0,1.84-.45L3.334,9.756l0,7.386a1.105,1.105,0,1,0,2.211,0l.006-7.26L6.583,11.17a1.366,1.366,0,0,0,1.839.454A1.365,1.365,0,0,0,8.37,9.73L5.64,6.339a1.917,1.917,0,0,0-.321-.316,1.1,1.1,0,0,0-.876-.438,1.093,1.093,0,0,0-.713.266,1.866,1.866,0,0,0-.587.485L.408,9.724A1.366,1.366,0,0,0,.355,11.618Z" transform="translate(0 -5.586)" fill="#9f9f9f"/>
  <path id="Trazado_22" data-name="Trazado 22" d="M23.442,5.587a1.106,1.106,0,0,0-1.107,1.106l-.006,7.26-1.037-1.287a1.366,1.366,0,0,0-1.839-.454,1.365,1.365,0,0,0,.052,1.894l2.73,3.391a1.919,1.919,0,0,0,.321.316,1.1,1.1,0,0,0,.876.438,1.093,1.093,0,0,0,.713-.266,1.861,1.861,0,0,0,.587-.485l2.735-3.387a1.365,1.365,0,0,0,.054-1.894,1.367,1.367,0,0,0-1.84.45L24.542,14.08l0-7.386A1.107,1.107,0,0,0,23.442,5.587Z" transform="translate(-9.734 -5.586)" fill="#9f9f9f"/>
</svg>
