<svg xmlns="http://www.w3.org/2000/svg" width="15.656" height="16.048" viewBox="0 0 15.656 16.048">
  <g id="Grupo_211" data-name="Grupo 211" transform="translate(-7.193 -6.586)">
    <path id="filtrar" d="M14.982,0H.674a.672.672,0,0,0-.6.365.682.682,0,0,0,.053.709L5.37,8.458l.005.007a1.5,1.5,0,0,1,.294.889v6.02a.669.669,0,0,0,.669.674A.69.69,0,0,0,6.6,16l2.945-1.123a.638.638,0,0,0,.439-.629V9.355a1.5,1.5,0,0,1,.294-.889l.005-.007,5.242-7.384a.681.681,0,0,0,.053-.709A.672.672,0,0,0,14.982,0Zm0,0" transform="translate(7.193 6.586)"/>
  </g>
</svg>
