<svg id="Guardar" xmlns="http://www.w3.org/2000/svg" width="14.429" height="17.055" viewBox="0 0 14.429 17.055">
  <path id="Trazado_9" data-name="Trazado 9" d="M16.827.564A1.271,1.271,0,0,0,16.235.1a1.248,1.248,0,0,0-.5-.1H3.925a1.247,1.247,0,0,0-.5.1,1.27,1.27,0,0,0-.592.462,1.2,1.2,0,0,0-.22.7v14.53a1.2,1.2,0,0,0,.22.7,1.27,1.27,0,0,0,.592.462,1.247,1.247,0,0,0,.5.1,1.344,1.344,0,0,0,.936-.372L9.832,11.9l4.971,4.78a1.342,1.342,0,0,0,.936.36,1.311,1.311,0,0,0,1.088-.552,1.2,1.2,0,0,0,.22-.7V1.263A1.2,1.2,0,0,0,16.827.564Z" transform="translate(-2.618)" fill="#9a9a9a"/>
</svg>
