<svg xmlns="http://www.w3.org/2000/svg" width="18.245" height="18.247" viewBox="0 0 18.245 18.247">
  <g id="Grupo_221" data-name="Grupo 221" transform="translate(-5.222 -5.487)">
    <path id="Trazado_14" data-name="Trazado 14" d="M18.854,9.73h0a.944.944,0,0,0-.943.945,7.213,7.213,0,1,1-1.748-4.719H13.507a.944.944,0,0,0,0,1.887h4.4a.944.944,0,0,0,.944-.944V2.5a.944.944,0,0,0-1.887,0V4.067A9.123,9.123,0,1,0,5.443,18.146,9.055,9.055,0,0,0,10.656,19.8a9.239,9.239,0,0,0,1.6-.141A9.124,9.124,0,0,0,19.8,10.673a.944.944,0,0,0-.944-.943Z" transform="translate(3.669 3.936)"/>
  </g>
</svg>
